<mxfile host="app.diagrams.net" modified="2021-03-21T17:14:58.174Z" agent="5.0 (Windows NT 10.0; Win64; x64) AppleWebKit/537.36 (KHTML, like Gecko) Chrome/89.0.4389.90 Safari/537.36" etag="DTNlG3lZAS5auRwwOnLr" version="14.4.3" type="github">
  <diagram id="C5RBs43oDa-KdzZeNtuy" name="Page-1">
    <mxGraphModel dx="4164" dy="1985" grid="1" gridSize="10" guides="1" tooltips="1" connect="1" arrows="1" fold="1" page="1" pageScale="1" pageWidth="827" pageHeight="1169" math="0" shadow="0">
      <root>
        <mxCell id="WIyWlLk6GJQsqaUBKTNV-0" />
        <mxCell id="WIyWlLk6GJQsqaUBKTNV-1" parent="WIyWlLk6GJQsqaUBKTNV-0" />
        <mxCell id="pUb_GiG7vOhpu216ZRw7-0" value="" style="shape=folder;fontStyle=1;spacingTop=10;tabWidth=140;tabHeight=40;tabPosition=left;html=1;strokeWidth=1;dashed=1;strokeColor=#82b366;fillColor=#d5e8d4;" vertex="1" parent="WIyWlLk6GJQsqaUBKTNV-1">
          <mxGeometry x="-1570" y="360" width="1300" height="920" as="geometry" />
        </mxCell>
        <mxCell id="pUb_GiG7vOhpu216ZRw7-1" value="" style="shape=folder;fontStyle=1;spacingTop=10;tabWidth=140;tabHeight=40;tabPosition=left;html=1;strokeWidth=1;dashed=1;strokeColor=#b85450;fillColor=#f8cecc;" vertex="1" parent="WIyWlLk6GJQsqaUBKTNV-1">
          <mxGeometry x="-1570" y="1370" width="1300" height="610" as="geometry" />
        </mxCell>
        <mxCell id="pUb_GiG7vOhpu216ZRw7-2" value="&lt;&lt;interface&gt;&gt;&#xa;ToastFactory" style="swimlane;fontStyle=1;align=center;verticalAlign=top;childLayout=stackLayout;horizontal=1;startSize=50;horizontalStack=0;resizeParent=1;resizeLast=0;collapsible=1;marginBottom=0;rounded=0;shadow=0;strokeWidth=1;fontSize=16;" vertex="1" parent="WIyWlLk6GJQsqaUBKTNV-1">
          <mxGeometry x="-995" y="1435" width="200" height="132" as="geometry">
            <mxRectangle x="130" y="380" width="160" height="26" as="alternateBounds" />
          </mxGeometry>
        </mxCell>
        <mxCell id="pUb_GiG7vOhpu216ZRw7-3" value="init(context: Context)" style="text;align=left;verticalAlign=top;spacingLeft=4;spacingRight=4;overflow=hidden;rotatable=0;points=[[0,0.5],[1,0.5]];portConstraint=eastwest;fontSize=16;fillColor=#ffffff;" vertex="1" parent="pUb_GiG7vOhpu216ZRw7-2">
          <mxGeometry y="50" width="200" height="42" as="geometry" />
        </mxCell>
        <mxCell id="pUb_GiG7vOhpu216ZRw7-4" value="create(): IToast" style="text;align=left;verticalAlign=top;spacingLeft=4;spacingRight=4;overflow=hidden;rotatable=0;points=[[0,0.5],[1,0.5]];portConstraint=eastwest;fontSize=16;fillColor=#ffffff;" vertex="1" parent="pUb_GiG7vOhpu216ZRw7-2">
          <mxGeometry y="92" width="200" height="40" as="geometry" />
        </mxCell>
        <mxCell id="pUb_GiG7vOhpu216ZRw7-5" value="ApplicationTypeToastFactory" style="swimlane;fontStyle=1;align=center;verticalAlign=top;childLayout=stackLayout;horizontal=1;startSize=26;horizontalStack=0;resizeParent=1;resizeLast=0;collapsible=1;marginBottom=0;rounded=0;shadow=0;strokeWidth=1;fontSize=16;fillColor=#FFFFFF;" vertex="1" parent="WIyWlLk6GJQsqaUBKTNV-1">
          <mxGeometry x="-720" y="1435" width="340" height="100" as="geometry">
            <mxRectangle x="130" y="380" width="160" height="26" as="alternateBounds" />
          </mxGeometry>
        </mxCell>
        <mxCell id="pUb_GiG7vOhpu216ZRw7-6" value="- mTopActivityRef: WeakReference&lt;Activity&gt;" style="text;align=left;verticalAlign=top;spacingLeft=4;spacingRight=4;overflow=hidden;rotatable=0;points=[[0,0.5],[1,0.5]];portConstraint=eastwest;rounded=0;shadow=0;html=0;fontSize=16;fillColor=#ffffff;" vertex="1" parent="pUb_GiG7vOhpu216ZRw7-5">
          <mxGeometry y="26" width="340" height="74" as="geometry" />
        </mxCell>
        <mxCell id="pUb_GiG7vOhpu216ZRw7-7" value="ApplicationTypeToast" style="swimlane;fontStyle=1;align=center;verticalAlign=top;childLayout=stackLayout;horizontal=1;startSize=26;horizontalStack=0;resizeParent=1;resizeLast=0;collapsible=1;marginBottom=0;rounded=0;shadow=0;strokeWidth=1;fontSize=16;" vertex="1" parent="WIyWlLk6GJQsqaUBKTNV-1">
          <mxGeometry x="-1065" y="1600" width="330" height="120" as="geometry">
            <mxRectangle x="130" y="380" width="160" height="26" as="alternateBounds" />
          </mxGeometry>
        </mxCell>
        <mxCell id="pUb_GiG7vOhpu216ZRw7-8" value="- mWindowManager: WindowManager" style="text;align=left;verticalAlign=top;spacingLeft=4;spacingRight=4;overflow=hidden;rotatable=0;points=[[0,0.5],[1,0.5]];portConstraint=eastwest;rounded=0;shadow=0;html=0;fontSize=16;fillColor=#ffffff;" vertex="1" parent="pUb_GiG7vOhpu216ZRw7-7">
          <mxGeometry y="26" width="330" height="28" as="geometry" />
        </mxCell>
        <mxCell id="pUb_GiG7vOhpu216ZRw7-9" value="- mContentView: View" style="text;align=left;verticalAlign=top;spacingLeft=4;spacingRight=4;overflow=hidden;rotatable=0;points=[[0,0.5],[1,0.5]];portConstraint=eastwest;rounded=0;shadow=0;html=0;fontSize=16;fillColor=#ffffff;" vertex="1" parent="pUb_GiG7vOhpu216ZRw7-7">
          <mxGeometry y="54" width="330" height="28" as="geometry" />
        </mxCell>
        <mxCell id="pUb_GiG7vOhpu216ZRw7-10" value="- mParams: WindowManager.LayoutParams" style="text;align=left;verticalAlign=top;spacingLeft=4;spacingRight=4;overflow=hidden;rotatable=0;points=[[0,0.5],[1,0.5]];portConstraint=eastwest;rounded=0;shadow=0;html=0;fontSize=16;fillColor=#ffffff;" vertex="1" parent="pUb_GiG7vOhpu216ZRw7-7">
          <mxGeometry y="82" width="330" height="38" as="geometry" />
        </mxCell>
        <mxCell id="pUb_GiG7vOhpu216ZRw7-11" style="edgeStyle=orthogonalEdgeStyle;rounded=0;orthogonalLoop=1;jettySize=auto;html=1;exitX=1;exitY=0.5;exitDx=0;exitDy=0;fontSize=16;" edge="1" parent="pUb_GiG7vOhpu216ZRw7-7">
          <mxGeometry relative="1" as="geometry">
            <mxPoint x="630" y="340.0000000000002" as="sourcePoint" />
            <mxPoint x="630" y="340.0000000000002" as="targetPoint" />
          </mxGeometry>
        </mxCell>
        <mxCell id="pUb_GiG7vOhpu216ZRw7-12" value="AbsToast&lt;T : AbsToast&lt;T&gt;&gt;" style="swimlane;fontStyle=1;align=center;verticalAlign=top;childLayout=stackLayout;horizontal=1;startSize=26;horizontalStack=0;resizeParent=1;resizeLast=0;collapsible=1;marginBottom=0;rounded=0;shadow=0;strokeWidth=1;fontSize=16;" vertex="1" parent="WIyWlLk6GJQsqaUBKTNV-1">
          <mxGeometry x="-1150" y="1000" width="510" height="260" as="geometry">
            <mxRectangle x="130" y="380" width="160" height="26" as="alternateBounds" />
          </mxGeometry>
        </mxCell>
        <mxCell id="pUb_GiG7vOhpu216ZRw7-13" value="# mContext: Context" style="text;align=left;verticalAlign=top;spacingLeft=4;spacingRight=4;overflow=hidden;rotatable=0;points=[[0,0.5],[1,0.5]];portConstraint=eastwest;rounded=0;shadow=0;html=0;fontSize=16;fillColor=#ffffff;" vertex="1" parent="pUb_GiG7vOhpu216ZRw7-12">
          <mxGeometry y="26" width="510" height="28" as="geometry" />
        </mxCell>
        <mxCell id="pUb_GiG7vOhpu216ZRw7-14" value="# mToastFactory: ToastFactory = ApplicationTypeToastFactory" style="text;align=left;verticalAlign=top;spacingLeft=4;spacingRight=4;overflow=hidden;rotatable=0;points=[[0,0.5],[1,0.5]];portConstraint=eastwest;rounded=0;shadow=0;html=0;fontSize=16;fillColor=#ffffff;" vertex="1" parent="pUb_GiG7vOhpu216ZRw7-12">
          <mxGeometry y="54" width="510" height="28" as="geometry" />
        </mxCell>
        <mxCell id="pUb_GiG7vOhpu216ZRw7-15" value="# mText: String" style="text;align=left;verticalAlign=top;spacingLeft=4;spacingRight=4;overflow=hidden;rotatable=0;points=[[0,0.5],[1,0.5]];portConstraint=eastwest;rounded=0;shadow=0;html=0;fontSize=16;fillColor=#ffffff;" vertex="1" parent="pUb_GiG7vOhpu216ZRw7-12">
          <mxGeometry y="82" width="510" height="28" as="geometry" />
        </mxCell>
        <mxCell id="pUb_GiG7vOhpu216ZRw7-16" value="# mDuration: Int" style="text;align=left;verticalAlign=top;spacingLeft=4;spacingRight=4;overflow=hidden;rotatable=0;points=[[0,0.5],[1,0.5]];portConstraint=eastwest;rounded=0;shadow=0;html=0;fontSize=16;fillColor=#ffffff;" vertex="1" parent="pUb_GiG7vOhpu216ZRw7-12">
          <mxGeometry y="110" width="510" height="28" as="geometry" />
        </mxCell>
        <mxCell id="pUb_GiG7vOhpu216ZRw7-17" value="# mAnchorView: View" style="text;align=left;verticalAlign=top;spacingLeft=4;spacingRight=4;overflow=hidden;rotatable=0;points=[[0,0.5],[1,0.5]];portConstraint=eastwest;rounded=0;shadow=0;html=0;fontSize=16;fillColor=#ffffff;" vertex="1" parent="pUb_GiG7vOhpu216ZRw7-12">
          <mxGeometry y="138" width="510" height="28" as="geometry" />
        </mxCell>
        <mxCell id="pUb_GiG7vOhpu216ZRw7-18" value="" style="line;strokeWidth=1;html=1;perimeter=backbonePerimeter;points=[];outlineConnect=0;fillColor=#ffffff;gradientColor=#ffffff;align=center;" vertex="1" parent="pUb_GiG7vOhpu216ZRw7-12">
          <mxGeometry y="166" width="510" height="2" as="geometry" />
        </mxCell>
        <mxCell id="pUb_GiG7vOhpu216ZRw7-19" value="+ text(text: String): T" style="text;align=left;verticalAlign=top;spacingLeft=4;spacingRight=4;overflow=hidden;rotatable=0;points=[[0,0.5],[1,0.5]];portConstraint=eastwest;fontStyle=0;fontSize=16;fillColor=#ffffff;" vertex="1" parent="pUb_GiG7vOhpu216ZRw7-12">
          <mxGeometry y="168" width="510" height="24" as="geometry" />
        </mxCell>
        <mxCell id="pUb_GiG7vOhpu216ZRw7-20" value="+ anchorView(anchorView: View): T" style="text;align=left;verticalAlign=top;spacingLeft=4;spacingRight=4;overflow=hidden;rotatable=0;points=[[0,0.5],[1,0.5]];portConstraint=eastwest;fontStyle=0;fontSize=16;fillColor=#ffffff;" vertex="1" parent="pUb_GiG7vOhpu216ZRw7-12">
          <mxGeometry y="192" width="510" height="24" as="geometry" />
        </mxCell>
        <mxCell id="pUb_GiG7vOhpu216ZRw7-21" value="+ show()" style="text;align=left;verticalAlign=top;spacingLeft=4;spacingRight=4;overflow=hidden;rotatable=0;points=[[0,0.5],[1,0.5]];portConstraint=eastwest;fontStyle=0;fontSize=16;fillColor=#ffffff;" vertex="1" parent="pUb_GiG7vOhpu216ZRw7-12">
          <mxGeometry y="216" width="510" height="44" as="geometry" />
        </mxCell>
        <mxCell id="pUb_GiG7vOhpu216ZRw7-22" style="edgeStyle=orthogonalEdgeStyle;rounded=0;orthogonalLoop=1;jettySize=auto;html=1;exitX=1;exitY=0.5;exitDx=0;exitDy=0;fontSize=16;" edge="1" parent="pUb_GiG7vOhpu216ZRw7-12">
          <mxGeometry relative="1" as="geometry">
            <mxPoint x="165" y="560.0000000000002" as="sourcePoint" />
            <mxPoint x="165" y="560.0000000000002" as="targetPoint" />
          </mxGeometry>
        </mxCell>
        <mxCell id="pUb_GiG7vOhpu216ZRw7-23" value="RegularToast" style="swimlane;fontStyle=1;align=center;verticalAlign=top;childLayout=stackLayout;horizontal=1;startSize=26;horizontalStack=0;resizeParent=1;resizeLast=0;collapsible=1;marginBottom=0;rounded=0;shadow=0;strokeWidth=1;fontSize=16;" vertex="1" parent="WIyWlLk6GJQsqaUBKTNV-1">
          <mxGeometry x="-1490" y="670" width="360" height="240" as="geometry">
            <mxRectangle x="130" y="380" width="160" height="26" as="alternateBounds" />
          </mxGeometry>
        </mxCell>
        <mxCell id="pUb_GiG7vOhpu216ZRw7-24" value="- sToastHelper: KeepSingleToastHelper" style="text;align=left;verticalAlign=top;spacingLeft=4;spacingRight=4;overflow=hidden;rotatable=0;points=[[0,0.5],[1,0.5]];portConstraint=eastwest;rounded=0;shadow=0;html=0;fontSize=16;fontStyle=4;fillColor=#ffffff;" vertex="1" parent="pUb_GiG7vOhpu216ZRw7-23">
          <mxGeometry y="26" width="360" height="28" as="geometry" />
        </mxCell>
        <mxCell id="pUb_GiG7vOhpu216ZRw7-25" value="- mIconRes: Int" style="text;align=left;verticalAlign=top;spacingLeft=4;spacingRight=4;overflow=hidden;rotatable=0;points=[[0,0.5],[1,0.5]];portConstraint=eastwest;rounded=0;shadow=0;html=0;fontSize=16;fillColor=#ffffff;" vertex="1" parent="pUb_GiG7vOhpu216ZRw7-23">
          <mxGeometry y="54" width="360" height="28" as="geometry" />
        </mxCell>
        <mxCell id="pUb_GiG7vOhpu216ZRw7-26" value="- mWidthFixed: Boolean" style="text;align=left;verticalAlign=top;spacingLeft=4;spacingRight=4;overflow=hidden;rotatable=0;points=[[0,0.5],[1,0.5]];portConstraint=eastwest;rounded=0;shadow=0;html=0;fontSize=16;fillColor=#ffffff;" vertex="1" parent="pUb_GiG7vOhpu216ZRw7-23">
          <mxGeometry y="82" width="360" height="28" as="geometry" />
        </mxCell>
        <mxCell id="pUb_GiG7vOhpu216ZRw7-27" value="- mMaxWidth: Int" style="text;align=left;verticalAlign=top;spacingLeft=4;spacingRight=4;overflow=hidden;rotatable=0;points=[[0,0.5],[1,0.5]];portConstraint=eastwest;rounded=0;shadow=0;html=0;fontSize=16;fillColor=#ffffff;" vertex="1" parent="pUb_GiG7vOhpu216ZRw7-23">
          <mxGeometry y="110" width="360" height="28" as="geometry" />
        </mxCell>
        <mxCell id="pUb_GiG7vOhpu216ZRw7-28" value="" style="line;html=1;strokeWidth=1;align=left;verticalAlign=middle;spacingTop=-1;spacingLeft=3;spacingRight=3;rotatable=0;labelPosition=right;points=[];portConstraint=eastwest;fontSize=16;fillColor=#000000;" vertex="1" parent="pUb_GiG7vOhpu216ZRw7-23">
          <mxGeometry y="138" width="360" height="2" as="geometry" />
        </mxCell>
        <mxCell id="pUb_GiG7vOhpu216ZRw7-29" value="+ icon(iconRes: Int): RegularToast" style="text;align=left;verticalAlign=top;spacingLeft=4;spacingRight=4;overflow=hidden;rotatable=0;points=[[0,0.5],[1,0.5]];portConstraint=eastwest;fontStyle=0;fontSize=16;fillColor=#ffffff;" vertex="1" parent="pUb_GiG7vOhpu216ZRw7-23">
          <mxGeometry y="140" width="360" height="24" as="geometry" />
        </mxCell>
        <mxCell id="pUb_GiG7vOhpu216ZRw7-30" value="+ widthFixed(widthFixed: Boolean): RegularToast" style="text;align=left;verticalAlign=top;spacingLeft=4;spacingRight=4;overflow=hidden;rotatable=0;points=[[0,0.5],[1,0.5]];portConstraint=eastwest;fontStyle=0;fontSize=16;fillColor=#ffffff;" vertex="1" parent="pUb_GiG7vOhpu216ZRw7-23">
          <mxGeometry y="164" width="360" height="24" as="geometry" />
        </mxCell>
        <mxCell id="pUb_GiG7vOhpu216ZRw7-31" value="+ maxWidth(maxWidth: Int): RegularToast" style="text;align=left;verticalAlign=top;spacingLeft=4;spacingRight=4;overflow=hidden;rotatable=0;points=[[0,0.5],[1,0.5]];portConstraint=eastwest;fontStyle=0;fontSize=16;fillColor=#ffffff;" vertex="1" parent="pUb_GiG7vOhpu216ZRw7-23">
          <mxGeometry y="188" width="360" height="52" as="geometry" />
        </mxCell>
        <mxCell id="pUb_GiG7vOhpu216ZRw7-32" style="edgeStyle=orthogonalEdgeStyle;rounded=0;orthogonalLoop=1;jettySize=auto;html=1;exitX=1;exitY=0.5;exitDx=0;exitDy=0;fontSize=16;" edge="1" parent="pUb_GiG7vOhpu216ZRw7-23">
          <mxGeometry relative="1" as="geometry">
            <mxPoint x="630" y="170.00000000000023" as="sourcePoint" />
            <mxPoint x="630" y="170.00000000000023" as="targetPoint" />
          </mxGeometry>
        </mxCell>
        <mxCell id="pUb_GiG7vOhpu216ZRw7-33" value="KeepSingleToastHelper" style="swimlane;fontStyle=1;align=center;verticalAlign=top;childLayout=stackLayout;horizontal=1;startSize=26;horizontalStack=0;resizeParent=1;resizeLast=0;collapsible=1;marginBottom=0;rounded=0;shadow=0;strokeWidth=1;fontSize=16;" vertex="1" parent="WIyWlLk6GJQsqaUBKTNV-1">
          <mxGeometry x="-1500" y="1030" width="290" height="130" as="geometry">
            <mxRectangle x="130" y="380" width="160" height="26" as="alternateBounds" />
          </mxGeometry>
        </mxCell>
        <mxCell id="pUb_GiG7vOhpu216ZRw7-34" value="- mToastRef: WeakReference&lt;IToast&gt;" style="text;align=left;verticalAlign=top;spacingLeft=4;spacingRight=4;overflow=hidden;rotatable=0;points=[[0,0.5],[1,0.5]];portConstraint=eastwest;rounded=0;shadow=0;html=0;fontSize=16;fillColor=#ffffff;" vertex="1" parent="pUb_GiG7vOhpu216ZRw7-33">
          <mxGeometry y="26" width="290" height="28" as="geometry" />
        </mxCell>
        <mxCell id="pUb_GiG7vOhpu216ZRw7-35" value="" style="line;strokeWidth=1;html=1;perimeter=backbonePerimeter;points=[];outlineConnect=0;fillColor=#ffffff;gradientColor=#ffffff;align=center;" vertex="1" parent="pUb_GiG7vOhpu216ZRw7-33">
          <mxGeometry y="54" width="290" height="2" as="geometry" />
        </mxCell>
        <mxCell id="pUb_GiG7vOhpu216ZRw7-36" value="onToastShow(toast: IToast)" style="text;align=left;verticalAlign=top;spacingLeft=4;spacingRight=4;overflow=hidden;rotatable=0;points=[[0,0.5],[1,0.5]];portConstraint=eastwest;fontStyle=0;fontSize=16;fillColor=#ffffff;" vertex="1" parent="pUb_GiG7vOhpu216ZRw7-33">
          <mxGeometry y="56" width="290" height="34" as="geometry" />
        </mxCell>
        <mxCell id="pUb_GiG7vOhpu216ZRw7-37" value="onToastDismiss(toast: IToast)" style="text;align=left;verticalAlign=top;spacingLeft=4;spacingRight=4;overflow=hidden;rotatable=0;points=[[0,0.5],[1,0.5]];portConstraint=eastwest;fontStyle=0;fontSize=16;fillColor=#ffffff;" vertex="1" parent="pUb_GiG7vOhpu216ZRw7-33">
          <mxGeometry y="90" width="290" height="40" as="geometry" />
        </mxCell>
        <mxCell id="pUb_GiG7vOhpu216ZRw7-38" style="edgeStyle=orthogonalEdgeStyle;rounded=0;orthogonalLoop=1;jettySize=auto;html=1;exitX=1;exitY=0.5;exitDx=0;exitDy=0;fontSize=16;" edge="1" parent="pUb_GiG7vOhpu216ZRw7-33">
          <mxGeometry relative="1" as="geometry">
            <mxPoint x="630" y="170.00000000000023" as="sourcePoint" />
            <mxPoint x="630" y="170.00000000000023" as="targetPoint" />
          </mxGeometry>
        </mxCell>
        <mxCell id="pUb_GiG7vOhpu216ZRw7-39" value="MultipleToast" style="swimlane;fontStyle=1;align=center;verticalAlign=top;childLayout=stackLayout;horizontal=1;startSize=26;horizontalStack=0;resizeParent=1;resizeLast=0;collapsible=1;marginBottom=0;rounded=0;shadow=0;strokeWidth=1;fontSize=16;" vertex="1" parent="WIyWlLk6GJQsqaUBKTNV-1">
          <mxGeometry x="-1080" y="670" width="370" height="230" as="geometry">
            <mxRectangle x="130" y="380" width="160" height="26" as="alternateBounds" />
          </mxGeometry>
        </mxCell>
        <mxCell id="pUb_GiG7vOhpu216ZRw7-40" value="- sToastHelper: KeepSingleToastHelper" style="text;align=left;verticalAlign=top;spacingLeft=4;spacingRight=4;overflow=hidden;rotatable=0;points=[[0,0.5],[1,0.5]];portConstraint=eastwest;rounded=0;shadow=0;html=0;fontSize=16;fontStyle=4;fillColor=#ffffff;" vertex="1" parent="pUb_GiG7vOhpu216ZRw7-39">
          <mxGeometry y="26" width="370" height="28" as="geometry" />
        </mxCell>
        <mxCell id="pUb_GiG7vOhpu216ZRw7-41" value="- mIconRes: Int" style="text;align=left;verticalAlign=top;spacingLeft=4;spacingRight=4;overflow=hidden;rotatable=0;points=[[0,0.5],[1,0.5]];portConstraint=eastwest;rounded=0;shadow=0;html=0;fontSize=16;fillColor=#ffffff;" vertex="1" parent="pUb_GiG7vOhpu216ZRw7-39">
          <mxGeometry y="54" width="370" height="28" as="geometry" />
        </mxCell>
        <mxCell id="pUb_GiG7vOhpu216ZRw7-42" value="- mWidthFixed: Boolean" style="text;align=left;verticalAlign=top;spacingLeft=4;spacingRight=4;overflow=hidden;rotatable=0;points=[[0,0.5],[1,0.5]];portConstraint=eastwest;rounded=0;shadow=0;html=0;fontSize=16;fillColor=#ffffff;" vertex="1" parent="pUb_GiG7vOhpu216ZRw7-39">
          <mxGeometry y="82" width="370" height="28" as="geometry" />
        </mxCell>
        <mxCell id="pUb_GiG7vOhpu216ZRw7-43" value="- mMaxWidth: Int" style="text;align=left;verticalAlign=top;spacingLeft=4;spacingRight=4;overflow=hidden;rotatable=0;points=[[0,0.5],[1,0.5]];portConstraint=eastwest;rounded=0;shadow=0;html=0;fontSize=16;fillColor=#ffffff;" vertex="1" parent="pUb_GiG7vOhpu216ZRw7-39">
          <mxGeometry y="110" width="370" height="28" as="geometry" />
        </mxCell>
        <mxCell id="pUb_GiG7vOhpu216ZRw7-44" value="" style="line;html=1;strokeWidth=1;align=left;verticalAlign=middle;spacingTop=-1;spacingLeft=3;spacingRight=3;rotatable=0;labelPosition=right;points=[];portConstraint=eastwest;fontSize=16;fillColor=#000000;" vertex="1" parent="pUb_GiG7vOhpu216ZRw7-39">
          <mxGeometry y="138" width="370" height="2" as="geometry" />
        </mxCell>
        <mxCell id="pUb_GiG7vOhpu216ZRw7-45" value="+ icon(iconRes: Int): MultipleToast" style="text;align=left;verticalAlign=top;spacingLeft=4;spacingRight=4;overflow=hidden;rotatable=0;points=[[0,0.5],[1,0.5]];portConstraint=eastwest;fontStyle=0;fontSize=16;fillColor=#ffffff;" vertex="1" parent="pUb_GiG7vOhpu216ZRw7-39">
          <mxGeometry y="140" width="370" height="24" as="geometry" />
        </mxCell>
        <mxCell id="pUb_GiG7vOhpu216ZRw7-46" value="+ clickText(text: String): MultipleToast" style="text;align=left;verticalAlign=top;spacingLeft=4;spacingRight=4;overflow=hidden;rotatable=0;points=[[0,0.5],[1,0.5]];portConstraint=eastwest;fontStyle=0;fontSize=16;fillColor=#ffffff;" vertex="1" parent="pUb_GiG7vOhpu216ZRw7-39">
          <mxGeometry y="164" width="370" height="24" as="geometry" />
        </mxCell>
        <mxCell id="pUb_GiG7vOhpu216ZRw7-47" value="+ clickAction(action: () -&gt; Unit): MultipleToast" style="text;align=left;verticalAlign=top;spacingLeft=4;spacingRight=4;overflow=hidden;rotatable=0;points=[[0,0.5],[1,0.5]];portConstraint=eastwest;fontStyle=0;fontSize=16;fillColor=#ffffff;" vertex="1" parent="pUb_GiG7vOhpu216ZRw7-39">
          <mxGeometry y="188" width="370" height="42" as="geometry" />
        </mxCell>
        <mxCell id="pUb_GiG7vOhpu216ZRw7-48" style="edgeStyle=orthogonalEdgeStyle;rounded=0;orthogonalLoop=1;jettySize=auto;html=1;exitX=1;exitY=0.5;exitDx=0;exitDy=0;fontSize=16;" edge="1" parent="pUb_GiG7vOhpu216ZRw7-39">
          <mxGeometry relative="1" as="geometry">
            <mxPoint x="630" y="170.00000000000023" as="sourcePoint" />
            <mxPoint x="630" y="170.00000000000023" as="targetPoint" />
          </mxGeometry>
        </mxCell>
        <mxCell id="pUb_GiG7vOhpu216ZRw7-49" style="edgeStyle=orthogonalEdgeStyle;rounded=0;orthogonalLoop=1;jettySize=auto;html=1;exitX=1;exitY=0.5;exitDx=0;exitDy=0;fontSize=16;" edge="1" parent="WIyWlLk6GJQsqaUBKTNV-1">
          <mxGeometry relative="1" as="geometry">
            <mxPoint x="-440" y="840" as="sourcePoint" />
            <mxPoint x="-440" y="840" as="targetPoint" />
          </mxGeometry>
        </mxCell>
        <mxCell id="pUb_GiG7vOhpu216ZRw7-50" value="MultipleToast" style="swimlane;fontStyle=1;align=center;verticalAlign=top;childLayout=stackLayout;horizontal=1;startSize=26;horizontalStack=0;resizeParent=1;resizeLast=0;collapsible=1;marginBottom=0;rounded=0;shadow=0;strokeWidth=1;fontSize=16;" vertex="1" parent="WIyWlLk6GJQsqaUBKTNV-1">
          <mxGeometry x="-670" y="780" width="250" height="120" as="geometry">
            <mxRectangle x="130" y="380" width="160" height="26" as="alternateBounds" />
          </mxGeometry>
        </mxCell>
        <mxCell id="pUb_GiG7vOhpu216ZRw7-51" value="- mOffset: IntArray" style="text;align=left;verticalAlign=top;spacingLeft=4;spacingRight=4;overflow=hidden;rotatable=0;points=[[0,0.5],[1,0.5]];portConstraint=eastwest;rounded=0;shadow=0;html=0;fontSize=16;fontStyle=0;fillColor=#ffffff;" vertex="1" parent="pUb_GiG7vOhpu216ZRw7-50">
          <mxGeometry y="26" width="250" height="28" as="geometry" />
        </mxCell>
        <mxCell id="pUb_GiG7vOhpu216ZRw7-52" value="" style="line;html=1;strokeWidth=1;align=left;verticalAlign=middle;spacingTop=-1;spacingLeft=3;spacingRight=3;rotatable=0;labelPosition=right;points=[];portConstraint=eastwest;fontSize=16;fillColor=#000000;" vertex="1" parent="pUb_GiG7vOhpu216ZRw7-50">
          <mxGeometry y="54" width="250" height="2" as="geometry" />
        </mxCell>
        <mxCell id="pUb_GiG7vOhpu216ZRw7-53" value="+ offset(x: Int, y: Int): FeedToast" style="text;align=left;verticalAlign=top;spacingLeft=4;spacingRight=4;overflow=hidden;rotatable=0;points=[[0,0.5],[1,0.5]];portConstraint=eastwest;fontStyle=0;fontSize=16;fillColor=#ffffff;" vertex="1" parent="pUb_GiG7vOhpu216ZRw7-50">
          <mxGeometry y="56" width="250" height="58" as="geometry" />
        </mxCell>
        <mxCell id="pUb_GiG7vOhpu216ZRw7-54" style="edgeStyle=orthogonalEdgeStyle;rounded=0;orthogonalLoop=1;jettySize=auto;html=1;exitX=1;exitY=0.5;exitDx=0;exitDy=0;fontSize=16;" edge="1" parent="pUb_GiG7vOhpu216ZRw7-50">
          <mxGeometry relative="1" as="geometry">
            <mxPoint x="630" y="170.00000000000023" as="sourcePoint" />
            <mxPoint x="630" y="170.00000000000023" as="targetPoint" />
          </mxGeometry>
        </mxCell>
        <mxCell id="pUb_GiG7vOhpu216ZRw7-55" value="" style="html=1;verticalAlign=bottom;endArrow=open;dashed=1;endSize=8;fontSize=16;exitX=0.5;exitY=1;exitDx=0;exitDy=0;entryX=0.5;entryY=0;entryDx=0;entryDy=0;edgeStyle=orthogonalEdgeStyle;" edge="1" parent="WIyWlLk6GJQsqaUBKTNV-1" source="pUb_GiG7vOhpu216ZRw7-76" target="pUb_GiG7vOhpu216ZRw7-23">
          <mxGeometry y="-60" relative="1" as="geometry">
            <mxPoint x="-1270" y="470" as="sourcePoint" />
            <mxPoint x="-1480" y="520" as="targetPoint" />
            <mxPoint as="offset" />
            <Array as="points">
              <mxPoint x="-895" y="620" />
              <mxPoint x="-1310" y="620" />
            </Array>
          </mxGeometry>
        </mxCell>
        <mxCell id="pUb_GiG7vOhpu216ZRw7-56" value="" style="endArrow=block;endSize=10;endFill=0;shadow=0;strokeWidth=1;rounded=0;elbow=vertical;fontSize=16;exitX=0.5;exitY=1;exitDx=0;exitDy=0;entryX=0.5;entryY=0;entryDx=0;entryDy=0;edgeStyle=orthogonalEdgeStyle;" edge="1" parent="WIyWlLk6GJQsqaUBKTNV-1" source="pUb_GiG7vOhpu216ZRw7-23" target="pUb_GiG7vOhpu216ZRw7-12">
          <mxGeometry width="160" relative="1" as="geometry">
            <mxPoint x="-1020" y="930" as="sourcePoint" />
            <mxPoint x="-1140" y="970" as="targetPoint" />
            <Array as="points">
              <mxPoint x="-1310" y="940" />
              <mxPoint x="-895" y="940" />
            </Array>
          </mxGeometry>
        </mxCell>
        <mxCell id="pUb_GiG7vOhpu216ZRw7-57" value="" style="endArrow=block;endSize=10;endFill=0;shadow=0;strokeWidth=1;rounded=0;elbow=vertical;fontSize=16;entryX=0.5;entryY=0;entryDx=0;entryDy=0;exitX=0.5;exitY=1;exitDx=0;exitDy=0;" edge="1" parent="WIyWlLk6GJQsqaUBKTNV-1" source="pUb_GiG7vOhpu216ZRw7-39" target="pUb_GiG7vOhpu216ZRw7-12">
          <mxGeometry width="160" relative="1" as="geometry">
            <mxPoint x="-895" y="912" as="sourcePoint" />
            <mxPoint x="-895" y="990" as="targetPoint" />
          </mxGeometry>
        </mxCell>
        <mxCell id="pUb_GiG7vOhpu216ZRw7-58" value="" style="endArrow=block;endSize=10;endFill=0;shadow=0;strokeWidth=1;rounded=0;elbow=vertical;fontSize=16;entryX=0.5;entryY=0;entryDx=0;entryDy=0;exitX=0.5;exitY=1;exitDx=0;exitDy=0;edgeStyle=orthogonalEdgeStyle;" edge="1" parent="WIyWlLk6GJQsqaUBKTNV-1" source="pUb_GiG7vOhpu216ZRw7-50" target="pUb_GiG7vOhpu216ZRw7-12">
          <mxGeometry width="160" relative="1" as="geometry">
            <mxPoint x="-895" y="912" as="sourcePoint" />
            <mxPoint x="-895" y="990" as="targetPoint" />
            <Array as="points">
              <mxPoint x="-545" y="940" />
              <mxPoint x="-895" y="940" />
            </Array>
          </mxGeometry>
        </mxCell>
        <mxCell id="pUb_GiG7vOhpu216ZRw7-59" value="" style="html=1;verticalAlign=bottom;endArrow=open;dashed=1;endSize=8;fontSize=16;exitX=0.25;exitY=1;exitDx=0;exitDy=0;entryX=0.5;entryY=0;entryDx=0;entryDy=0;edgeStyle=elbowEdgeStyle;elbow=vertical;" edge="1" parent="WIyWlLk6GJQsqaUBKTNV-1" source="pUb_GiG7vOhpu216ZRw7-39" target="pUb_GiG7vOhpu216ZRw7-33">
          <mxGeometry y="-60" relative="1" as="geometry">
            <mxPoint x="-1460" y="1190" as="sourcePoint" />
            <mxPoint x="-1580" y="1190" as="targetPoint" />
            <mxPoint as="offset" />
            <Array as="points">
              <mxPoint x="-1150" y="970" />
            </Array>
          </mxGeometry>
        </mxCell>
        <mxCell id="pUb_GiG7vOhpu216ZRw7-60" value="" style="html=1;verticalAlign=bottom;endArrow=open;dashed=1;endSize=8;fontSize=16;exitX=0.25;exitY=1;exitDx=0;exitDy=0;entryX=0.5;entryY=0;entryDx=0;entryDy=0;edgeStyle=elbowEdgeStyle;elbow=vertical;" edge="1" parent="WIyWlLk6GJQsqaUBKTNV-1" source="pUb_GiG7vOhpu216ZRw7-23" target="pUb_GiG7vOhpu216ZRw7-33">
          <mxGeometry y="-60" relative="1" as="geometry">
            <mxPoint x="-1460" y="1190" as="sourcePoint" />
            <mxPoint x="-1580" y="1190" as="targetPoint" />
            <mxPoint as="offset" />
          </mxGeometry>
        </mxCell>
        <mxCell id="pUb_GiG7vOhpu216ZRw7-61" value="&lt;b style=&quot;font-size: 16px&quot;&gt;&lt;font style=&quot;font-size: 16px&quot;&gt;EmptyToast&lt;br&gt;&lt;/font&gt;&lt;/b&gt;" style="html=1;fontSize=16;" vertex="1" parent="WIyWlLk6GJQsqaUBKTNV-1">
          <mxGeometry x="-1065" y="1890" width="330" height="50" as="geometry" />
        </mxCell>
        <mxCell id="pUb_GiG7vOhpu216ZRw7-62" value="" style="html=1;verticalAlign=bottom;endArrow=open;dashed=1;endSize=8;fontSize=16;entryX=0.5;entryY=0;entryDx=0;entryDy=0;exitX=0.5;exitY=1;exitDx=0;exitDy=0;" edge="1" parent="WIyWlLk6GJQsqaUBKTNV-1" source="pUb_GiG7vOhpu216ZRw7-12" target="pUb_GiG7vOhpu216ZRw7-2">
          <mxGeometry y="-60" relative="1" as="geometry">
            <mxPoint x="-720" y="1385" as="sourcePoint" />
            <mxPoint x="-680" y="1383.33" as="targetPoint" />
            <mxPoint as="offset" />
          </mxGeometry>
        </mxCell>
        <mxCell id="pUb_GiG7vOhpu216ZRw7-63" value="" style="endArrow=block;endSize=10;endFill=0;shadow=0;strokeWidth=1;rounded=0;fontSize=16;dashed=1;exitX=0;exitY=0.5;exitDx=0;exitDy=0;entryX=1;entryY=0.5;entryDx=0;entryDy=0;edgeStyle=elbowEdgeStyle;" edge="1" parent="WIyWlLk6GJQsqaUBKTNV-1" source="pUb_GiG7vOhpu216ZRw7-9" target="pUb_GiG7vOhpu216ZRw7-91">
          <mxGeometry width="160" relative="1" as="geometry">
            <mxPoint x="-1520" y="1910" as="sourcePoint" />
            <mxPoint x="-1130" y="1650" as="targetPoint" />
          </mxGeometry>
        </mxCell>
        <mxCell id="pUb_GiG7vOhpu216ZRw7-64" value="" style="html=1;verticalAlign=bottom;endArrow=open;dashed=1;endSize=8;fontSize=16;exitX=0.5;exitY=1;exitDx=0;exitDy=0;entryX=1;entryY=0.5;entryDx=0;entryDy=0;edgeStyle=orthogonalEdgeStyle;curved=1;" edge="1" parent="WIyWlLk6GJQsqaUBKTNV-1" source="pUb_GiG7vOhpu216ZRw7-5" target="pUb_GiG7vOhpu216ZRw7-9">
          <mxGeometry y="-60" relative="1" as="geometry">
            <mxPoint x="-480" y="1700" as="sourcePoint" />
            <mxPoint x="-690" y="1750" as="targetPoint" />
            <mxPoint as="offset" />
          </mxGeometry>
        </mxCell>
        <mxCell id="pUb_GiG7vOhpu216ZRw7-65" value="" style="endArrow=block;endSize=10;endFill=0;shadow=0;strokeWidth=1;rounded=0;elbow=vertical;fontSize=16;dashed=1;exitX=0;exitY=0.5;exitDx=0;exitDy=0;entryX=1;entryY=0.5;entryDx=0;entryDy=0;" edge="1" parent="WIyWlLk6GJQsqaUBKTNV-1" source="pUb_GiG7vOhpu216ZRw7-6" target="pUb_GiG7vOhpu216ZRw7-3">
          <mxGeometry width="160" relative="1" as="geometry">
            <mxPoint x="-1520" y="1910" as="sourcePoint" />
            <mxPoint x="-1640" y="1950" as="targetPoint" />
          </mxGeometry>
        </mxCell>
        <mxCell id="pUb_GiG7vOhpu216ZRw7-66" value="" style="html=1;verticalAlign=bottom;endArrow=open;dashed=1;endSize=8;fontSize=16;exitX=0.5;exitY=1.583;exitDx=0;exitDy=0;exitPerimeter=0;edgeStyle=orthogonalEdgeStyle;entryX=0.5;entryY=0;entryDx=0;entryDy=0;" edge="1" parent="WIyWlLk6GJQsqaUBKTNV-1" source="pUb_GiG7vOhpu216ZRw7-21" target="pUb_GiG7vOhpu216ZRw7-84">
          <mxGeometry y="-60" relative="1" as="geometry">
            <mxPoint x="-480" y="1700" as="sourcePoint" />
            <mxPoint x="-1300" y="1385" as="targetPoint" />
            <mxPoint as="offset" />
            <Array as="points">
              <mxPoint x="-895" y="1350" />
              <mxPoint x="-1300" y="1350" />
            </Array>
          </mxGeometry>
        </mxCell>
        <mxCell id="pUb_GiG7vOhpu216ZRw7-67" value="" style="html=1;verticalAlign=bottom;endArrow=open;dashed=1;endSize=8;fontSize=16;entryX=0.5;entryY=0;entryDx=0;entryDy=0;exitX=0.5;exitY=1;exitDx=0;exitDy=0;edgeStyle=elbowEdgeStyle;elbow=vertical;" edge="1" parent="WIyWlLk6GJQsqaUBKTNV-1" source="pUb_GiG7vOhpu216ZRw7-12" target="pUb_GiG7vOhpu216ZRw7-5">
          <mxGeometry y="-60" relative="1" as="geometry">
            <mxPoint x="-420" y="1270" as="sourcePoint" />
            <mxPoint x="-680" y="1383.33" as="targetPoint" />
            <mxPoint as="offset" />
            <Array as="points">
              <mxPoint x="-720" y="1350" />
            </Array>
          </mxGeometry>
        </mxCell>
        <mxCell id="pUb_GiG7vOhpu216ZRw7-68" value="ActivityLifecycleToast" style="swimlane;fontStyle=1;align=center;verticalAlign=top;childLayout=stackLayout;horizontal=1;startSize=26;horizontalStack=0;resizeParent=1;resizeLast=0;collapsible=1;marginBottom=0;rounded=0;shadow=0;strokeWidth=1;fontSize=16;" vertex="1" parent="WIyWlLk6GJQsqaUBKTNV-1">
          <mxGeometry x="-1065" y="1770" width="330" height="80" as="geometry">
            <mxRectangle x="130" y="380" width="160" height="26" as="alternateBounds" />
          </mxGeometry>
        </mxCell>
        <mxCell id="pUb_GiG7vOhpu216ZRw7-69" value="- mToast: IToast" style="text;align=left;verticalAlign=top;spacingLeft=4;spacingRight=4;overflow=hidden;rotatable=0;points=[[0,0.5],[1,0.5]];portConstraint=eastwest;rounded=0;shadow=0;html=0;fontSize=16;fillColor=#ffffff;" vertex="1" parent="pUb_GiG7vOhpu216ZRw7-68">
          <mxGeometry y="26" width="330" height="54" as="geometry" />
        </mxCell>
        <mxCell id="pUb_GiG7vOhpu216ZRw7-70" style="edgeStyle=orthogonalEdgeStyle;rounded=0;orthogonalLoop=1;jettySize=auto;html=1;exitX=1;exitY=0.5;exitDx=0;exitDy=0;fontSize=16;" edge="1" parent="pUb_GiG7vOhpu216ZRw7-68">
          <mxGeometry relative="1" as="geometry">
            <mxPoint x="630" y="340.0000000000002" as="sourcePoint" />
            <mxPoint x="630" y="340.0000000000002" as="targetPoint" />
          </mxGeometry>
        </mxCell>
        <mxCell id="pUb_GiG7vOhpu216ZRw7-71" value="" style="html=1;verticalAlign=bottom;endArrow=open;dashed=1;endSize=8;fontSize=16;exitX=0.5;exitY=1;exitDx=0;exitDy=0;entryX=1;entryY=0.5;entryDx=0;entryDy=0;edgeStyle=orthogonalEdgeStyle;curved=1;" edge="1" parent="WIyWlLk6GJQsqaUBKTNV-1" source="pUb_GiG7vOhpu216ZRw7-5" target="pUb_GiG7vOhpu216ZRw7-68">
          <mxGeometry y="-60" relative="1" as="geometry">
            <mxPoint x="-480" y="1700" as="sourcePoint" />
            <mxPoint x="-690" y="1750" as="targetPoint" />
            <mxPoint as="offset" />
          </mxGeometry>
        </mxCell>
        <mxCell id="pUb_GiG7vOhpu216ZRw7-72" value="" style="html=1;verticalAlign=bottom;endArrow=open;dashed=1;endSize=8;fontSize=16;exitX=0.5;exitY=1;exitDx=0;exitDy=0;edgeStyle=orthogonalEdgeStyle;entryX=1;entryY=0.5;entryDx=0;entryDy=0;curved=1;" edge="1" parent="WIyWlLk6GJQsqaUBKTNV-1" source="pUb_GiG7vOhpu216ZRw7-5" target="pUb_GiG7vOhpu216ZRw7-61">
          <mxGeometry y="-60" relative="1" as="geometry">
            <mxPoint x="-480" y="1700" as="sourcePoint" />
            <mxPoint x="-690" y="1750" as="targetPoint" />
            <mxPoint as="offset" />
          </mxGeometry>
        </mxCell>
        <mxCell id="pUb_GiG7vOhpu216ZRw7-73" value="" style="endArrow=block;endSize=10;endFill=0;shadow=0;strokeWidth=1;rounded=0;elbow=vertical;fontSize=16;dashed=1;exitX=0;exitY=0.5;exitDx=0;exitDy=0;entryX=1;entryY=0.5;entryDx=0;entryDy=0;edgeStyle=orthogonalEdgeStyle;" edge="1" parent="WIyWlLk6GJQsqaUBKTNV-1" source="pUb_GiG7vOhpu216ZRw7-69" target="pUb_GiG7vOhpu216ZRw7-91">
          <mxGeometry width="160" relative="1" as="geometry">
            <mxPoint x="-1520" y="1910" as="sourcePoint" />
            <mxPoint x="-1150" y="1740" as="targetPoint" />
          </mxGeometry>
        </mxCell>
        <mxCell id="pUb_GiG7vOhpu216ZRw7-74" value="" style="endArrow=block;endSize=10;endFill=0;shadow=0;strokeWidth=1;rounded=0;elbow=vertical;fontSize=16;dashed=1;exitX=0;exitY=0.5;exitDx=0;exitDy=0;entryX=1;entryY=0.5;entryDx=0;entryDy=0;edgeStyle=orthogonalEdgeStyle;" edge="1" parent="WIyWlLk6GJQsqaUBKTNV-1" source="pUb_GiG7vOhpu216ZRw7-61" target="pUb_GiG7vOhpu216ZRw7-91">
          <mxGeometry width="160" relative="1" as="geometry">
            <mxPoint x="-1520" y="1910" as="sourcePoint" />
            <mxPoint x="-1140" y="1870" as="targetPoint" />
          </mxGeometry>
        </mxCell>
        <mxCell id="pUb_GiG7vOhpu216ZRw7-75" value="" style="html=1;verticalAlign=bottom;endArrow=open;dashed=1;endSize=8;fontSize=16;exitX=0;exitY=0.5;exitDx=0;exitDy=0;entryX=1;entryY=0.5;entryDx=0;entryDy=0;edgeStyle=orthogonalEdgeStyle;curved=1;" edge="1" parent="WIyWlLk6GJQsqaUBKTNV-1" source="pUb_GiG7vOhpu216ZRw7-3" target="pUb_GiG7vOhpu216ZRw7-87">
          <mxGeometry y="-60" relative="1" as="geometry">
            <mxPoint x="-480" y="1700" as="sourcePoint" />
            <mxPoint x="-690" y="1750" as="targetPoint" />
            <mxPoint as="offset" />
          </mxGeometry>
        </mxCell>
        <mxCell id="pUb_GiG7vOhpu216ZRw7-76" value="FtToast" style="swimlane;fontStyle=1;align=center;verticalAlign=top;childLayout=stackLayout;horizontal=1;startSize=26;horizontalStack=0;resizeParent=1;resizeLast=0;collapsible=1;marginBottom=0;rounded=0;shadow=0;strokeWidth=1;fontSize=16;" vertex="1" parent="WIyWlLk6GJQsqaUBKTNV-1">
          <mxGeometry x="-1080" y="440" width="370" height="140" as="geometry">
            <mxRectangle x="130" y="380" width="160" height="26" as="alternateBounds" />
          </mxGeometry>
        </mxCell>
        <mxCell id="pUb_GiG7vOhpu216ZRw7-77" value="+ init(context: Context)" style="text;align=left;verticalAlign=top;spacingLeft=4;spacingRight=4;overflow=hidden;rotatable=0;points=[[0,0.5],[1,0.5]];portConstraint=eastwest;fontStyle=4;fontSize=16;fillColor=#ffffff;" vertex="1" parent="pUb_GiG7vOhpu216ZRw7-76">
          <mxGeometry y="26" width="370" height="24" as="geometry" />
        </mxCell>
        <mxCell id="pUb_GiG7vOhpu216ZRw7-78" value="+ regularToast(): RegularToast" style="text;align=left;verticalAlign=top;spacingLeft=4;spacingRight=4;overflow=hidden;rotatable=0;points=[[0,0.5],[1,0.5]];portConstraint=eastwest;fontStyle=4;fontSize=16;fillColor=#ffffff;" vertex="1" parent="pUb_GiG7vOhpu216ZRw7-76">
          <mxGeometry y="50" width="370" height="24" as="geometry" />
        </mxCell>
        <mxCell id="pUb_GiG7vOhpu216ZRw7-79" value="+ multipleToast(): MultipleToast" style="text;align=left;verticalAlign=top;spacingLeft=4;spacingRight=4;overflow=hidden;rotatable=0;points=[[0,0.5],[1,0.5]];portConstraint=eastwest;fontStyle=4;fontSize=16;fillColor=#ffffff;" vertex="1" parent="pUb_GiG7vOhpu216ZRw7-76">
          <mxGeometry y="74" width="370" height="24" as="geometry" />
        </mxCell>
        <mxCell id="pUb_GiG7vOhpu216ZRw7-80" style="edgeStyle=orthogonalEdgeStyle;rounded=0;orthogonalLoop=1;jettySize=auto;html=1;exitX=1;exitY=0.5;exitDx=0;exitDy=0;fontSize=16;" edge="1" parent="pUb_GiG7vOhpu216ZRw7-76">
          <mxGeometry relative="1" as="geometry">
            <mxPoint x="630" y="170.00000000000023" as="sourcePoint" />
            <mxPoint x="630" y="170.00000000000023" as="targetPoint" />
          </mxGeometry>
        </mxCell>
        <mxCell id="pUb_GiG7vOhpu216ZRw7-81" value="+ feedToast(): FeedToast" style="text;align=left;verticalAlign=top;spacingLeft=4;spacingRight=4;overflow=hidden;rotatable=0;points=[[0,0.5],[1,0.5]];portConstraint=eastwest;fontStyle=4;fontSize=16;fillColor=#ffffff;" vertex="1" parent="pUb_GiG7vOhpu216ZRw7-76">
          <mxGeometry y="98" width="370" height="42" as="geometry" />
        </mxCell>
        <mxCell id="pUb_GiG7vOhpu216ZRw7-82" value="" style="html=1;verticalAlign=bottom;endArrow=open;dashed=1;endSize=8;fontSize=16;exitX=0.5;exitY=1;exitDx=0;exitDy=0;entryX=0.5;entryY=0;entryDx=0;entryDy=0;" edge="1" parent="WIyWlLk6GJQsqaUBKTNV-1" source="pUb_GiG7vOhpu216ZRw7-76" target="pUb_GiG7vOhpu216ZRw7-39">
          <mxGeometry y="-60" relative="1" as="geometry">
            <mxPoint x="-1270" y="470" as="sourcePoint" />
            <mxPoint x="-1480" y="520" as="targetPoint" />
            <mxPoint as="offset" />
          </mxGeometry>
        </mxCell>
        <mxCell id="pUb_GiG7vOhpu216ZRw7-83" value="" style="html=1;verticalAlign=bottom;endArrow=open;dashed=1;endSize=8;fontSize=16;exitX=0.5;exitY=1;exitDx=0;exitDy=0;entryX=0.5;entryY=0;entryDx=0;entryDy=0;edgeStyle=elbowEdgeStyle;elbow=vertical;" edge="1" parent="WIyWlLk6GJQsqaUBKTNV-1" source="pUb_GiG7vOhpu216ZRw7-76" target="pUb_GiG7vOhpu216ZRw7-50">
          <mxGeometry y="-60" relative="1" as="geometry">
            <mxPoint x="-1270" y="470" as="sourcePoint" />
            <mxPoint x="-1480" y="520" as="targetPoint" />
            <mxPoint as="offset" />
            <Array as="points">
              <mxPoint x="-700" y="620" />
              <mxPoint x="-710" y="590" />
            </Array>
          </mxGeometry>
        </mxCell>
        <mxCell id="pUb_GiG7vOhpu216ZRw7-84" value="&lt;&lt;interface&gt;&gt;&#xa;IToast" style="swimlane;fontStyle=1;align=center;verticalAlign=top;childLayout=stackLayout;horizontal=1;startSize=50;horizontalStack=0;resizeParent=1;resizeLast=0;collapsible=1;marginBottom=0;rounded=0;shadow=0;strokeWidth=1;fontSize=16;fillColor=#FFFFFF;" vertex="1" parent="WIyWlLk6GJQsqaUBKTNV-1">
          <mxGeometry x="-1450" y="1435" width="300" height="412" as="geometry">
            <mxRectangle x="130" y="380" width="160" height="26" as="alternateBounds" />
          </mxGeometry>
        </mxCell>
        <mxCell id="pUb_GiG7vOhpu216ZRw7-85" value="setContentView(view: View)" style="text;align=left;verticalAlign=top;spacingLeft=4;spacingRight=4;overflow=hidden;rotatable=0;points=[[0,0.5],[1,0.5]];portConstraint=eastwest;fontSize=16;fillColor=#ffffff;" vertex="1" parent="pUb_GiG7vOhpu216ZRw7-84">
          <mxGeometry y="50" width="300" height="42" as="geometry" />
        </mxCell>
        <mxCell id="pUb_GiG7vOhpu216ZRw7-86" value="setClickable(clickable: Boolean)" style="text;align=left;verticalAlign=top;spacingLeft=4;spacingRight=4;overflow=hidden;rotatable=0;points=[[0,0.5],[1,0.5]];portConstraint=eastwest;fontSize=16;fillColor=#ffffff;" vertex="1" parent="pUb_GiG7vOhpu216ZRw7-84">
          <mxGeometry y="92" width="300" height="40" as="geometry" />
        </mxCell>
        <mxCell id="pUb_GiG7vOhpu216ZRw7-87" value="setSize(width: Int, height: Int)" style="text;align=left;verticalAlign=top;spacingLeft=4;spacingRight=4;overflow=hidden;rotatable=0;points=[[0,0.5],[1,0.5]];portConstraint=eastwest;fontSize=16;fillColor=#ffffff;" vertex="1" parent="pUb_GiG7vOhpu216ZRw7-84">
          <mxGeometry y="132" width="300" height="40" as="geometry" />
        </mxCell>
        <mxCell id="pUb_GiG7vOhpu216ZRw7-88" value="setGravity(gravity: Int)" style="text;align=left;verticalAlign=top;spacingLeft=4;spacingRight=4;overflow=hidden;rotatable=0;points=[[0,0.5],[1,0.5]];portConstraint=eastwest;fontSize=16;fillColor=#ffffff;" vertex="1" parent="pUb_GiG7vOhpu216ZRw7-84">
          <mxGeometry y="172" width="300" height="40" as="geometry" />
        </mxCell>
        <mxCell id="pUb_GiG7vOhpu216ZRw7-89" value="setOffset(offsetX: Int, offsetY: Int)" style="text;align=left;verticalAlign=top;spacingLeft=4;spacingRight=4;overflow=hidden;rotatable=0;points=[[0,0.5],[1,0.5]];portConstraint=eastwest;fontSize=16;fillColor=#ffffff;" vertex="1" parent="pUb_GiG7vOhpu216ZRw7-84">
          <mxGeometry y="212" width="300" height="40" as="geometry" />
        </mxCell>
        <mxCell id="pUb_GiG7vOhpu216ZRw7-90" value="setAnimationStyle(animationStyle: Int)" style="text;align=left;verticalAlign=top;spacingLeft=4;spacingRight=4;overflow=hidden;rotatable=0;points=[[0,0.5],[1,0.5]];portConstraint=eastwest;fontSize=16;fillColor=#ffffff;" vertex="1" parent="pUb_GiG7vOhpu216ZRw7-84">
          <mxGeometry y="252" width="300" height="40" as="geometry" />
        </mxCell>
        <mxCell id="pUb_GiG7vOhpu216ZRw7-91" value="show(): Boolean" style="text;align=left;verticalAlign=top;spacingLeft=4;spacingRight=4;overflow=hidden;rotatable=0;points=[[0,0.5],[1,0.5]];portConstraint=eastwest;fontSize=16;fillColor=#ffffff;" vertex="1" parent="pUb_GiG7vOhpu216ZRw7-84">
          <mxGeometry y="292" width="300" height="40" as="geometry" />
        </mxCell>
        <mxCell id="pUb_GiG7vOhpu216ZRw7-92" value="dismiss()" style="text;align=left;verticalAlign=top;spacingLeft=4;spacingRight=4;overflow=hidden;rotatable=0;points=[[0,0.5],[1,0.5]];portConstraint=eastwest;fontSize=16;fillColor=#ffffff;" vertex="1" parent="pUb_GiG7vOhpu216ZRw7-84">
          <mxGeometry y="332" width="300" height="40" as="geometry" />
        </mxCell>
        <mxCell id="pUb_GiG7vOhpu216ZRw7-93" value="..." style="text;align=left;verticalAlign=top;spacingLeft=4;spacingRight=4;overflow=hidden;rotatable=0;points=[[0,0.5],[1,0.5]];portConstraint=eastwest;fontSize=16;fillColor=#ffffff;" vertex="1" parent="pUb_GiG7vOhpu216ZRw7-84">
          <mxGeometry y="372" width="300" height="40" as="geometry" />
        </mxCell>
        <mxCell id="pUb_GiG7vOhpu216ZRw7-94" value="Base" style="text;align=center;verticalAlign=middle;spacingLeft=4;spacingRight=4;overflow=hidden;rotatable=0;points=[[0,0.5],[1,0.5]];portConstraint=eastwest;fontSize=16;strokeColor=#b85450;fillColor=#f8cecc;dashed=1;" vertex="1" parent="WIyWlLk6GJQsqaUBKTNV-1">
          <mxGeometry x="-1570" y="1370" width="140" height="40" as="geometry" />
        </mxCell>
        <mxCell id="pUb_GiG7vOhpu216ZRw7-95" value="API" style="text;align=center;verticalAlign=middle;spacingLeft=4;spacingRight=4;overflow=hidden;rotatable=0;points=[[0,0.5],[1,0.5]];portConstraint=eastwest;rounded=0;shadow=0;html=0;fontSize=16;fillColor=#d5e8d4;strokeColor=#82b366;dashed=1;" vertex="1" parent="WIyWlLk6GJQsqaUBKTNV-1">
          <mxGeometry x="-1570" y="360" width="140" height="40" as="geometry" />
        </mxCell>
      </root>
    </mxGraphModel>
  </diagram>
</mxfile>
